{"asset":{"version":"2.0","generator":"Blockbench 4.11.1 glTF exporter"},"scenes":[{"nodes":[7],"name":"Goblin"}],"scene":0,"nodes":[{"translation":[-0.5625,-0.6750000000000003,0],"name":"torso","mesh":0},{"rotation":[0.3210962343378761,0.013504832192445353,0.028015256110637512,0.9465357749322235],"translation":[0.06048696671827258,0.01874999999999971,0.02229917470414966],"name":"handR","mesh":1},{"rotation":[1.3541694921472752e-35,-1.3877787807814457e-16,5.827961966377102e-20,1],"translation":[0.03880208333333346,0.059343434343434365,-1.1102230246251565e-16],"name":"head","mesh":2},{"rotation":[-0.004279469520326158,-0.19508846489687098,-0.0008512394134171651,0.9807759440342467],"translation":[0.10624999999999984,-0.43750000000000033,-0.08125000000000004],"name":"legR","mesh":3},{"rotation":[-0.09313986178115286,0.11405520949152567,-0.061643775282860046,0.9871759824388497],"translation":[0.06875,-0.09375000000000033,0.05624999999999991],"name":"handL","mesh":4},{"rotation":[0.004279469520326158,0.19508846489687098,-0.0008512394134171651,0.9807759440342467],"translation":[0.10624999999999984,-0.43750000000000033,0.08124999999999993],"name":"legL","mesh":5},{"rotation":[5.827961830058876e-20,9.419698780884223e-47,1.6162938357454997e-27,1],"translation":[-0.0625,0.7312500000000003,-0.02499999999999991],"name":"goblin_body","children":[0,1,2,3,4,5]},{"children":[6]}],"bufferViews":[{"buffer":0,"byteOffset":0,"byteLength":5376,"target":34962,"byteStride":12},{"buffer":0,"byteOffset":5376,"byteLength":5376,"target":34962,"byteStride":12},{"buffer":0,"byteOffset":10752,"byteLength":3584,"target":34962,"byteStride":8},{"buffer":0,"byteOffset":14336,"byteLength":1344,"target":34963},{"buffer":0,"byteOffset":15680,"byteLength":3072,"target":34962,"byteStride":12},{"buffer":0,"byteOffset":18752,"byteLength":3072,"target":34962,"byteStride":12},{"buffer":0,"byteOffset":21824,"byteLength":2048,"target":34962,"byteStride":8},{"buffer":0,"byteOffset":23872,"byteLength":768,"target":34963},{"buffer":0,"byteOffset":24640,"byteLength":3840,"target":34962,"byteStride":12},{"buffer":0,"byteOffset":28480,"byteLength":3840,"target":34962,"byteStride":12},{"buffer":0,"byteOffset":32320,"byteLength":2560,"target":34962,"byteStride":8},{"buffer":0,"byteOffset":34880,"byteLength":960,"target":34963},{"buffer":0,"byteOffset":35840,"byteLength":4224,"target":34962,"byteStride":12},{"buffer":0,"byteOffset":40064,"byteLength":4224,"target":34962,"byteStride":12},{"buffer":0,"byteOffset":44288,"byteLength":2816,"target":34962,"byteStride":8},{"buffer":0,"byteOffset":47104,"byteLength":1056,"target":34963},{"buffer":0,"byteOffset":48160,"byteLength":3072,"target":34962,"byteStride":12},{"buffer":0,"byteOffset":51232,"byteLength":3072,"target":34962,"byteStride":12},{"buffer":0,"byteOffset":54304,"byteLength":2048,"target":34962,"byteStride":8},{"buffer":0,"byteOffset":56352,"byteLength":768,"target":34963},{"buffer":0,"byteOffset":57120,"byteLength":4224,"target":34962,"byteStride":12},{"buffer":0,"byteOffset":61344,"byteLength":4224,"target":34962,"byteStride":12},{"buffer":0,"byteOffset":65568,"byteLength":2816,"target":34962,"byteStride":8},{"buffer":0,"byteOffset":68384,"byteLength":1056,"target":34963}],"buffers":[{"byteLength":69440,"uri":"data:application/octet-stream;base64,"}],"accessors":[{"bufferView":0,"componentType":5126,"count":448,"max":[0.7006582021713257,0.699999988079071,0.10781247913837433],"min":[0.5421029925346375,0.4124999940395355,-0.10781247913837433],"type":"VEC3"},{"bufferView":1,"componentType":5126,"count":448,"max":[0.9924776554107666,1,0.9926726222038269],"min":[-0.999997615814209,-1,-0.9927021265029907],"type":"VEC3"},{"bufferView":2,"componentType":5126,"count":448,"max":[0.84375,0.8554156422615051],"min":[0.09534062445163727,0],"type":"VEC2"},{"bufferView":3,"componentType":5123,"count":672,"max":[447],"min":[0],"type":"SCALAR"},{"bufferView":4,"componentType":5126,"count":256,"max":[0.02500000037252903,-0.05312500149011612,0.16685408353805542],"min":[-0.12851828336715698,-0.5335265398025513,-0.08669348806142807],"type":"VEC3"},{"bufferView":5,"componentType":5126,"count":256,"max":[0.9831866025924683,0.937285840511322,0.9934253096580505],"min":[-0.981399655342102,-0.9821394681930542,-0.889291524887085],"type":"VEC3"},{"bufferView":6,"componentType":5126,"count":256,"max":[0.8921124935150146,0.9140625],"min":[0.09518930315971375,0.0007417201995849609],"type":"VEC2"},{"bufferView":7,"componentType":5123,"count":384,"max":[255],"min":[0],"type":"SCALAR"},{"bufferView":8,"componentType":5126,"count":320,"max":[0.07272165268659592,0.09145669639110565,0.13124999403953552],"min":[-0.0853198692202568,-0.07184343785047531,-0.13124999403953552],"type":"VEC3"},{"bufferView":9,"componentType":5126,"count":320,"max":[0.9920850396156311,1,0.9497784972190857],"min":[-0.9749811291694641,-1,-0.947326123714447],"type":"VEC3"},{"bufferView":10,"componentType":5126,"count":320,"max":[0.8925031423568726,0.87890625],"min":[0,0.0019766688346862793],"type":"VEC2"},{"bufferView":11,"componentType":5123,"count":480,"max":[319],"min":[0],"type":"SCALAR"},{"bufferView":12,"componentType":5126,"count":352,"max":[0.006295337341725826,0.23747573792934418,0.1112113669514656],"min":[-0.14374999701976776,-0.29347729682922363,0.030509958043694496],"type":"VEC3"},{"bufferView":13,"componentType":5126,"count":352,"max":[0.9487278461456299,0.9999998211860657,0.9999920129776001],"min":[-0.9488605856895447,-1,-0.9999914765357971],"type":"VEC3"},{"bufferView":14,"componentType":5126,"count":352,"max":[0.9140625,0.91796875],"min":[0,0],"type":"VEC2"},{"bufferView":15,"componentType":5123,"count":528,"max":[351],"min":[0],"type":"SCALAR"},{"bufferView":16,"componentType":5126,"count":256,"max":[0.006273768376559019,0.05823500454425812,0.05512933060526848],"min":[-0.14724452793598175,-0.04716651886701584,-0.07341824471950531],"type":"VEC3"},{"bufferView":17,"componentType":5126,"count":256,"max":[0.9371386170387268,0.99266117811203,0.9404043555259705],"min":[-0.885412335395813,-0.9972780346870422,-0.9906229972839355],"type":"VEC3"},{"bufferView":18,"componentType":5126,"count":256,"max":[0.6835635304450989,0.6875],"min":[0,0],"type":"VEC2"},{"bufferView":19,"componentType":5123,"count":384,"max":[255],"min":[0],"type":"SCALAR"},{"bufferView":20,"componentType":5126,"count":352,"max":[0.006295337341725826,0.23747573792934418,-0.030509958043694496],"min":[-0.14374999701976776,-0.29347729682922363,-0.1112113669514656],"type":"VEC3"},{"bufferView":21,"componentType":5126,"count":352,"max":[0.9487278461456299,0.9999998211860657,0.9999914765357971],"min":[-0.9488605856895447,-1,-0.9999920129776001],"type":"VEC3"},{"bufferView":22,"componentType":5126,"count":352,"max":[0.9140625,0.91796875],"min":[0,0],"type":"VEC2"},{"bufferView":23,"componentType":5123,"count":528,"max":[351],"min":[0],"type":"SCALAR"}],"materials":[{"pbrMetallicRoughness":{"metallicFactor":0,"roughnessFactor":1,"baseColorTexture":{"index":0}},"alphaMode":"MASK","alphaCutoff":0.05,"doubleSided":true},{"pbrMetallicRoughness":{"metallicFactor":0,"roughnessFactor":1,"baseColorTexture":{"index":1}},"alphaMode":"MASK","alphaCutoff":0.05,"doubleSided":true}],"textures":[{"sampler":0,"source":0,"name":"goblin.png"},{"sampler":1,"source":1,"name":"sour_hand"}],"samplers":[{"magFilter":9728,"minFilter":9728,"wrapS":33071,"wrapT":33071},{"magFilter":9728,"minFilter":9728,"wrapS":33071,"wrapT":33071}],"images":[{"mimeType":"image/png","uri":"data:image/png;base64,"},{"mimeType":"image/png","uri":"data:image/png;base64,"}],"meshes":[{"primitives":[{"mode":4,"attributes":{"POSITION":0,"NORMAL":1,"TEXCOORD_0":2},"indices":3,"material":0}]},{"primitives":[{"mode":4,"attributes":{"POSITION":4,"NORMAL":5,"TEXCOORD_0":6},"indices":7,"material":0}]},{"primitives":[{"mode":4,"attributes":{"POSITION":8,"NORMAL":9,"TEXCOORD_0":10},"indices":11,"material":0}]},{"primitives":[{"mode":4,"attributes":{"POSITION":12,"NORMAL":13,"TEXCOORD_0":14},"indices":15,"material":0}]},{"primitives":[{"mode":4,"attributes":{"POSITION":16,"NORMAL":17,"TEXCOORD_0":18},"indices":19,"material":1}]},{"primitives":[{"mode":4,"attributes":{"POSITION":20,"NORMAL":21,"TEXCOORD_0":22},"indices":23,"material":0}]}]}