{"asset":{"version":"2.0","generator":"Blockbench 4.11.1 glTF exporter"},"scenes":[{"nodes":[2],"name":"blockbench_export"}],"scene":0,"nodes":[{"translation":[31.25,0.009375000000000005,31.25],"name":"base","mesh":0},{"translation":[12.5625,0.75,17.5],"name":"cone","mesh":1},{"children":[0,1]}],"bufferViews":[{"buffer":0,"byteOffset":0,"byteLength":288,"target":34962,"byteStride":12},{"buffer":0,"byteOffset":288,"byteLength":288,"target":34962,"byteStride":12},{"buffer":0,"byteOffset":576,"byteLength":192,"target":34962,"byteStride":8},{"buffer":0,"byteOffset":768,"byteLength":72,"target":34963},{"buffer":0,"byteOffset":840,"byteLength":624,"target":34962,"byteStride":12},{"buffer":0,"byteOffset":1464,"byteLength":624,"target":34962,"byteStride":12},{"buffer":0,"byteOffset":2088,"byteLength":416,"target":34962,"byteStride":8},{"buffer":0,"byteOffset":2504,"byteLength":120,"target":34963}],"buffers":[{"byteLength":2624,"uri":"data:application/octet-stream;base64,"}],"accessors":[{"bufferView":0,"componentType":5126,"count":24,"max":[31.25,0.05937499925494194,31.25],"min":[-31.25,-0.0031250000465661287,-31.25],"type":"VEC3"},{"bufferView":1,"componentType":5126,"count":24,"max":[1,1,1],"min":[-1,-1,-1],"type":"VEC3"},{"bufferView":2,"componentType":5126,"count":24,"max":[1.953125,0.861328125],"min":[0.4248046875,0],"type":"VEC2"},{"bufferView":3,"componentType":5123,"count":36,"max":[23],"min":[0],"type":"SCALAR"},{"bufferView":4,"componentType":5126,"count":52,"max":[12.75390911102295,5.973958492279053,10.36745834350586],"min":[-8.541438102722168,-0.7760416865348816,-9.712028503417969],"type":"VEC3"},{"bufferView":5,"componentType":5126,"count":52,"max":[0.41814422607421875,0.8368707895278931,0.8334307074546814],"min":[-0.6850026249885559,-1,-0.6216985583305359],"type":"VEC3"},{"bufferView":6,"componentType":5126,"count":52,"max":[0.5818744897842407,0.5947265625],"min":[0.0004114257753826678,0],"type":"VEC2"},{"bufferView":7,"componentType":5123,"count":60,"max":[51],"min":[0],"type":"SCALAR"}],"materials":[{"pbrMetallicRoughness":{"metallicFactor":0,"roughnessFactor":1,"baseColorTexture":{"index":0}},"alphaMode":"MASK","alphaCutoff":0.05,"doubleSided":true},{"pbrMetallicRoughness":{"metallicFactor":0,"roughnessFactor":1,"baseColorTexture":{"index":1}},"alphaMode":"MASK","alphaCutoff":0.05,"doubleSided":true}],"textures":[{"sampler":0,"source":0,"name":"teren.png"},{"sampler":1,"source":1,"name":"texture"}],"samplers":[{"magFilter":9728,"minFilter":9728,"wrapS":33071,"wrapT":33071},{"magFilter":9728,"minFilter":9728,"wrapS":33071,"wrapT":33071}],"images":[{"mimeType":"image/png","uri":"data:image/png;base64,"},{"mimeType":"image/png","uri":"data:image/png;base64,"}],"meshes":[{"primitives":[{"mode":4,"attributes":{"POSITION":0,"NORMAL":1,"TEXCOORD_0":2},"indices":3,"material":0}]},{"primitives":[{"mode":4,"attributes":{"POSITION":4,"NORMAL":5,"TEXCOORD_0":6},"indices":7,"material":1}]}]}