{"asset":{"version":"2.0","generator":"Blockbench 4.11.1 glTF exporter"},"scenes":[{"nodes":[5],"name":"blockbench_export"}],"scene":0,"nodes":[{"translation":[31.25,0.009375000000000005,31.25],"name":"base-col","mesh":0},{"translation":[12.5625,0.6875,17.5],"name":"cone-col","mesh":1},{"translation":[37.9375,0.75,42.125],"name":"cone2-col","mesh":2},{"rotation":[0.006170592427165337,0.006170592427165338,0.7070798567270162,0.7070798567270163],"translation":[21.125,0.24479166666666932,30.302083333333332],"name":"tube-col","mesh":3},{"rotation":[0.018509897659266826,-0.018509897659266823,0.7068644733530207,0.7068644733530208],"translation":[21.125,0.3072916666666693,32.302083333333336],"name":"tube2-col","mesh":4},{"children":[0,1,2,3,4]}],"bufferViews":[{"buffer":0,"byteOffset":0,"byteLength":288,"target":34962,"byteStride":12},{"buffer":0,"byteOffset":288,"byteLength":288,"target":34962,"byteStride":12},{"buffer":0,"byteOffset":576,"byteLength":192,"target":34962,"byteStride":8},{"buffer":0,"byteOffset":768,"byteLength":72,"target":34963},{"buffer":0,"byteOffset":840,"byteLength":624,"target":34962,"byteStride":12},{"buffer":0,"byteOffset":1464,"byteLength":624,"target":34962,"byteStride":12},{"buffer":0,"byteOffset":2088,"byteLength":416,"target":34962,"byteStride":8},{"buffer":0,"byteOffset":2504,"byteLength":120,"target":34963},{"buffer":0,"byteOffset":2624,"byteLength":648,"target":34962,"byteStride":12},{"buffer":0,"byteOffset":3272,"byteLength":648,"target":34962,"byteStride":12},{"buffer":0,"byteOffset":3920,"byteLength":432,"target":34962,"byteStride":8},{"buffer":0,"byteOffset":4352,"byteLength":120,"target":34963},{"buffer":0,"byteOffset":4472,"byteLength":2304,"target":34962,"byteStride":12},{"buffer":0,"byteOffset":6776,"byteLength":2304,"target":34962,"byteStride":12},{"buffer":0,"byteOffset":9080,"byteLength":1536,"target":34962,"byteStride":8},{"buffer":0,"byteOffset":10616,"byteLength":576,"target":34963},{"buffer":0,"byteOffset":11192,"byteLength":2304,"target":34962,"byteStride":12},{"buffer":0,"byteOffset":13496,"byteLength":2304,"target":34962,"byteStride":12},{"buffer":0,"byteOffset":15800,"byteLength":1536,"target":34962,"byteStride":8},{"buffer":0,"byteOffset":17336,"byteLength":576,"target":34963}],"buffers":[{"byteLength":17912,"uri":"data:application/octet-stream;base64,"}],"accessors":[{"bufferView":0,"componentType":5126,"count":24,"max":[31.25,0.05937499925494194,31.25],"min":[-31.25,-0.0031250000465661287,-31.25],"type":"VEC3"},{"bufferView":1,"componentType":5126,"count":24,"max":[1,1,1],"min":[-1,-1,-1],"type":"VEC3"},{"bufferView":2,"componentType":5126,"count":24,"max":[1.953125,0.861328125],"min":[0.4248046875,0],"type":"VEC2"},{"bufferView":3,"componentType":5123,"count":36,"max":[23],"min":[0],"type":"SCALAR"},{"bufferView":4,"componentType":5126,"count":52,"max":[12.75390911102295,5.973958492279053,10.36745834350586],"min":[-8.541438102722168,-0.7760416865348816,-9.712028503417969],"type":"VEC3"},{"bufferView":5,"componentType":5126,"count":52,"max":[0.41814422607421875,0.8368707895278931,0.8334307074546814],"min":[-0.6850026249885559,-1,-0.6216985583305359],"type":"VEC3"},{"bufferView":6,"componentType":5126,"count":52,"max":[0.5818744897842407,0.5947265625],"min":[0.0004114257753826678,0],"type":"VEC2"},{"bufferView":7,"componentType":5123,"count":60,"max":[51],"min":[0],"type":"SCALAR"},{"bufferView":8,"componentType":5126,"count":54,"max":[8.50390911102295,2.0364582538604736,7.858345031738281],"min":[-8.541438102722168,-0.7760416865348816,-5.38877534866333],"type":"VEC3"},{"bufferView":9,"componentType":5126,"count":54,"max":[0.3479712903499603,0.9494463205337524,0.8334307074546814],"min":[-0.552623987197876,-1,-0.5620906949043274],"type":"VEC3"},{"bufferView":10,"componentType":5126,"count":54,"max":[0.5818744897842407,0.5947265625],"min":[0.0004114257753826678,0],"type":"VEC2"},{"bufferView":11,"componentType":5123,"count":60,"max":[53],"min":[0],"type":"SCALAR"},{"bufferView":12,"componentType":5126,"count":192,"max":[0.3177083432674408,15.625,1.1141825914382935],"min":[-0.3485575318336487,-15.625,-1.3433492183685303],"type":"VEC3"},{"bufferView":13,"componentType":5126,"count":192,"max":[1,1,1],"min":[-1,-1,-1],"type":"VEC3"},{"bufferView":14,"componentType":5126,"count":192,"max":[0.6200123429298401,0.6094647645950317],"min":[0,0.0013271570205688477],"type":"VEC2"},{"bufferView":15,"componentType":5123,"count":288,"max":[191],"min":[0],"type":"SCALAR"},{"bufferView":16,"componentType":5126,"count":192,"max":[0.3177083432674408,15.625,1.1141825914382935],"min":[-0.3485575318336487,-15.625,-1.3433492183685303],"type":"VEC3"},{"bufferView":17,"componentType":5126,"count":192,"max":[1,1,1],"min":[-1,-1,-1],"type":"VEC3"},{"bufferView":18,"componentType":5126,"count":192,"max":[0.607181191444397,0.39635586738586426],"min":[0,0],"type":"VEC2"},{"bufferView":19,"componentType":5123,"count":288,"max":[191],"min":[0],"type":"SCALAR"}],"materials":[{"pbrMetallicRoughness":{"metallicFactor":0,"roughnessFactor":1,"baseColorTexture":{"index":0}},"alphaMode":"MASK","alphaCutoff":0.05,"doubleSided":true},{"pbrMetallicRoughness":{"metallicFactor":0,"roughnessFactor":1,"baseColorTexture":{"index":1}},"alphaMode":"MASK","alphaCutoff":0.05,"doubleSided":true},{"pbrMetallicRoughness":{"metallicFactor":0,"roughnessFactor":1,"baseColorTexture":{"index":2}},"alphaMode":"MASK","alphaCutoff":0.05,"doubleSided":true}],"textures":[{"sampler":0,"source":0,"name":"teren.png"},{"sampler":1,"source":1,"name":"texture"},{"sampler":2,"source":2,"name":"platform"}],"samplers":[{"magFilter":9728,"minFilter":9728,"wrapS":33071,"wrapT":33071},{"magFilter":9728,"minFilter":9728,"wrapS":33071,"wrapT":33071},{"magFilter":9728,"minFilter":9728,"wrapS":33071,"wrapT":33071}],"images":[{"mimeType":"image/png","uri":"data:image/png;base64,"},{"mimeType":"image/png","uri":"data:image/png;base64,"},{"mimeType":"image/png","uri":"data:image/png;base64,"}],"meshes":[{"primitives":[{"mode":4,"attributes":{"POSITION":0,"NORMAL":1,"TEXCOORD_0":2},"indices":3,"material":0}]},{"primitives":[{"mode":4,"attributes":{"POSITION":4,"NORMAL":5,"TEXCOORD_0":6},"indices":7,"material":1}]},{"primitives":[{"mode":4,"attributes":{"POSITION":8,"NORMAL":9,"TEXCOORD_0":10},"indices":11,"material":1}]},{"primitives":[{"mode":4,"attributes":{"POSITION":12,"NORMAL":13,"TEXCOORD_0":14},"indices":15,"material":2}]},{"primitives":[{"mode":4,"attributes":{"POSITION":16,"NORMAL":17,"TEXCOORD_0":18},"indices":19,"material":2}]}]}